<svg version="1.1" id="Layer_1" xmlns="http://www.w3.org/2000/svg" xmlns:xlink="http://www.w3.org/1999/xlink" x="0px" y="0px"
	 width="100%" viewBox="0 0 222 104" enable-background="new 0 0 222 104" xml:space="preserve">
<path fill="#EDF1F5" opacity="1.000000" stroke="none" 
	d="
M143.000000,105.000000 
	C95.333359,105.000000 48.166710,105.000000 1.000051,105.000000 
	C1.000034,70.333374 1.000034,35.666744 1.000017,1.000088 
	C74.999924,1.000059 148.999847,1.000059 222.999817,1.000029 
	C222.999878,35.666576 222.999878,70.333153 222.999939,104.999863 
	C196.500000,105.000000 170.000000,105.000000 143.000000,105.000000 
M112.908638,82.072350 
	C119.402496,82.040756 125.910477,82.270767 132.387161,81.921143 
	C144.527695,81.265762 153.624191,72.393791 154.856613,60.428230 
	C156.205078,47.335949 149.244781,36.201637 136.776505,33.885166 
	C128.414673,32.331627 119.661079,32.886711 110.668045,32.479538 
	C110.668045,48.983971 110.653336,64.612640 110.724197,80.240921 
	C110.726906,80.838814 111.554947,81.432961 112.908638,82.072350 
M165.170334,77.352768 
	C173.964264,84.391716 185.643143,84.552750 193.562561,77.744278 
	C200.326385,71.929291 202.155334,60.174553 197.473816,52.072533 
	C193.271927,44.800526 186.535294,42.018650 178.553772,42.339878 
	C170.466827,42.665344 164.030960,46.295597 160.918488,54.067272 
	C157.639282,62.255272 158.549850,70.045341 165.170334,77.352768 
M63.677349,65.785591 
	C65.945984,78.606865 76.436829,85.141045 89.642509,81.957893 
	C100.516235,79.336838 106.687561,67.910904 103.411858,56.464577 
	C100.519508,46.357811 91.016724,40.742928 80.040344,42.655125 
	C68.784996,44.615925 62.831467,52.669693 63.677349,65.785591 
M46.846897,60.500561 
	C46.846897,54.578373 46.846897,48.656189 46.846897,42.088936 
	C51.509289,42.088936 55.553108,42.088936 59.514278,42.088936 
	C59.514278,38.682095 59.514278,35.942989 59.514278,33.173027 
	C46.802887,33.173027 34.427013,33.173027 21.987938,33.173027 
	C21.987938,36.266773 21.987938,39.014839 21.987938,42.387451 
	C26.294975,42.387451 30.351618,42.387451 34.886246,42.387451 
	C34.886246,55.889664 34.886246,68.770264 34.886246,81.720566 
	C39.099464,81.720566 42.802586,81.720566 46.846840,81.720566 
	C46.846840,74.746704 46.846840,68.123489 46.846897,60.500561 
z"/>
<path fill="#2548B5" opacity="1.000000" stroke="none" 
	d="
M112.453522,82.050598 
	C111.554947,81.432961 110.726906,80.838814 110.724197,80.240921 
	C110.653336,64.612640 110.668045,48.983971 110.668045,32.479538 
	C119.661079,32.886711 128.414673,32.331627 136.776505,33.885166 
	C149.244781,36.201637 156.205078,47.335949 154.856613,60.428230 
	C153.624191,72.393791 144.527695,81.265762 132.387161,81.921143 
	C125.910477,82.270767 119.402496,82.040756 112.453522,82.050598 
M122.778404,70.167236 
	C128.396545,74.698639 139.655426,70.450974 141.923431,62.944336 
	C145.839325,49.983498 137.655212,41.449200 122.733971,43.544811 
	C122.733971,52.052696 122.733971,60.641308 122.778404,70.167236 
z"/>
<path fill="#2749B6" opacity="1.000000" stroke="none" 
	d="
M164.911926,77.095345 
	C158.549850,70.045341 157.639282,62.255272 160.918488,54.067272 
	C164.030960,46.295597 170.466827,42.665344 178.553772,42.339878 
	C186.535294,42.018650 193.271927,44.800526 197.473816,52.072533 
	C202.155334,60.174553 200.326385,71.929291 193.562561,77.744278 
	C185.643143,84.552750 173.964264,84.391716 164.911926,77.095345 
M187.765961,64.088745 
	C187.631287,56.949230 185.293747,53.343460 180.504272,52.887257 
	C175.895432,52.448261 172.640091,55.035732 171.808533,59.798962 
	C170.731049,65.970894 173.068100,70.947319 177.534698,71.992065 
	C182.332535,73.114288 185.668503,70.762459 187.765961,64.088745 
z"/>
<path fill="#2648B6" opacity="1.000000" stroke="none" 
	d="
M63.611717,65.376862 
	C62.831467,52.669693 68.784996,44.615925 80.040344,42.655125 
	C91.016724,40.742928 100.519508,46.357811 103.411858,56.464577 
	C106.687561,67.910904 100.516235,79.336838 89.642509,81.957893 
	C76.436829,85.141045 65.945984,78.606865 63.611717,65.376862 
M85.930138,71.917038 
	C86.935196,71.356125 88.072342,70.946869 88.921661,70.207138 
	C92.026909,67.502586 92.905220,62.030815 91.079170,57.788967 
	C89.499260,54.118923 86.717613,52.512524 82.781776,52.928932 
	C78.152931,53.418663 75.539291,57.297047 75.785027,63.222870 
	C76.044952,69.490990 78.689354,71.984734 85.930138,71.917038 
z"/>
<path fill="#2447B5" opacity="1.000000" stroke="none" 
	d="
M46.846870,61.000420 
	C46.846840,68.123489 46.846840,74.746704 46.846840,81.720566 
	C42.802586,81.720566 39.099464,81.720566 34.886246,81.720566 
	C34.886246,68.770264 34.886246,55.889664 34.886246,42.387451 
	C30.351618,42.387451 26.294975,42.387451 21.987938,42.387451 
	C21.987938,39.014839 21.987938,36.266773 21.987938,33.173027 
	C34.427013,33.173027 46.802887,33.173027 59.514278,33.173027 
	C59.514278,35.942989 59.514278,38.682095 59.514278,42.088936 
	C55.553108,42.088936 51.509289,42.088936 46.846897,42.088936 
	C46.846897,48.656189 46.846897,54.578373 46.846870,61.000420 
z"/>
<path fill="#EBF0F4" opacity="1.000000" stroke="none" 
	d="
M122.756187,69.698578 
	C122.733971,60.641308 122.733971,52.052696 122.733971,43.544811 
	C137.655212,41.449200 145.839325,49.983498 141.923431,62.944336 
	C139.655426,70.450974 128.396545,74.698639 122.756187,69.698578 
z"/>
<path fill="#EBEFF4" opacity="1.000000" stroke="none" 
	d="
M187.700226,64.480286 
	C185.668503,70.762459 182.332535,73.114288 177.534698,71.992065 
	C173.068100,70.947319 170.731049,65.970894 171.808533,59.798962 
	C172.640091,55.035732 175.895432,52.448261 180.504272,52.887257 
	C185.293747,53.343460 187.631287,56.949230 187.700226,64.480286 
z"/>
<path fill="#EAEFF4" opacity="1.000000" stroke="none" 
	d="
M85.532562,71.978600 
	C78.689354,71.984734 76.044952,69.490990 75.785027,63.222870 
	C75.539291,57.297047 78.152931,53.418663 82.781776,52.928932 
	C86.717613,52.512524 89.499260,54.118923 91.079170,57.788967 
	C92.905220,62.030815 92.026909,67.502586 88.921661,70.207138 
	C88.072342,70.946869 86.935196,71.356125 85.532562,71.978600 
z"/>
</svg>